# xmcd
#
# Track frame offsets:
#	150
#	16965
#	32564
#	52061
#	69617
#	87059
#	103928
#	127910
#	143324
#	163225
#	185496
#	204398
#	221391
#	239225
#	253757
#	268255
#	285369
#	300923
#	318870
#	340465
#
# Disc length: 4621 seconds
#
# Revision: 0
# Processed by: cddbd v1.4PL0 Copyright (c) Steve Scherf et al.
# Submitted via: dBpowerAMP V4.0
#
DISCID=22120b14
DTITLE=Corey - I'm Just Corey
DYEAR=1900
DGENRE=
TTITLE0=101-Hush Lil' Lady(feat. LIL ROMEO)
TTITLE1=102-Ghetto Superstar
TTITLE2=103-MVP(feat. SHAQ)
TTITLE3=104-If I Was Older
TTITLE4=105-2 Can Play That Game
TTITLE5=106-What?
TTITLE6=107-First Time
TTITLE7=108-Hands Up
TTITLE8=109-I Saw You
TTITLE9=110-Soldier
TTITLE10=111-Stop Talkin' About Me
TTITLE11=112-Cutest Girl
TTITLE12=113-All I Do [feat. MICHAEL JACKSON)
TTITLE13=114-ALL I KNOW
TTITLE14=115-CODE 5-WHATS UR NAME GIRL
TTITLE15=116-
TTITLE16=117-SOL-CRAZAY
TTITLE17=118-702-ALL I WANT
TTITLE18=119-TOTAL-WHAT ABOUT US
TTITLE19=120-
EXTD=
EXTT0=
EXTT1=
EXTT2=
EXTT3=
EXTT4=
EXTT5=
EXTT6=
EXTT7=
EXTT8=
EXTT9=
EXTT10=
EXTT11=
EXTT12=
EXTT13=
EXTT14=
EXTT15=
EXTT16=
EXTT17=
EXTT18=
EXTT19=
PLAYORDER=
